<svg xmlns="http://www.w3.org/2000/svg" viewBox="0 0 640 640">
  <g fill="#0B0C0C">
    <path d="m406.3 154.5 1.4-1.4c31 11.1 51 13.7 59.2 8.4-10.4-9.8-23.4-19.7-42.2-19.7l17-34a143.7 143.7 0 0 0 28.9 49c3.6-9.1-1.4-27.7-6.4-37.6l56.6 56.6c-9.9-5-28.5-10-37.7-6.4 12 11.4 28.3 21 49 29l-34 17c0-19-9.8-32-19.6-42.3-5.3 8.2-2.8 28 8.4 59.2l-1.4 1.4c-10-18.4-20.8-32-34-45.2a180.7 180.7 0 0 0-45.2-34ZM154.5 406.3l-1.4 1.4c11.1 31 13.7 51 8.4 59.2-9.8-10.4-19.7-23.4-19.7-42.2l-34 17a143.7 143.7 0 0 1 49 28.9c-9.1 3.6-27.7-1.4-37.6-6.4l56.6 56.6c-5-9.9-10-28.5-6.4-37.7 11.4 12 21 28.3 29 49l17-34c-19 0-32-9.8-42.3-19.6 8.2-5.3 28-2.8 59.2 8.4l1.4-1.4c-18.4-10-32-20.8-45.2-34a180.7 180.7 0 0 1-34-45.2Zm330.3.7 1.4 1.4c-11.1 31-13.7 51-8.4 59.2 9.8-10.4 19.7-23.4 19.7-42.2l34 17a143.7 143.7 0 0 0-49 28.9c9.1 3.6 27.7-1.4 37.6-6.3l-56.6 56.5c5-9.9 10-28.5 6.4-37.7-11.4 12-21 28.3-29 49L424 499c19 0 32-9.9 42.3-19.7-8.2-5.3-28-2.8-59.2 8.4l-1.4-1.4c18.3-10 32-20.8 45.2-34 14.2-14.1 24-26.8 34-45.2ZM233 155.2l-1.4-1.4c-31 11.1-51 13.7-59.2 8.4 10.4-9.8 23.4-19.7 42.2-19.7l-17-34a143.7 143.7 0 0 1-28.9 49c-3.6-9.1 1.4-27.7 6.3-37.6l-56.5 56.6c9.9-5 28.5-10 37.7-6.4-12 11.4-28.3 21-49 29l33.9 17c0-19 9.9-32 19.7-42.3 5.3 8.2 2.8 28-8.4 59.2l1.4 1.4c10-18.3 20.8-32 34-45.2 14.1-14.2 26.8-24 45.2-34Zm31-13.2v-2c30.7-12.6 46-21.5 46-28 0-8-33.3-12-34 7.4v.6l-.2-1c-6.1-30.3 19.6-35.7 36.9-22.5-8.2-11.7-11.5-31 7.5-40.5 18.7 9.4 15.3 28.8 7.1 40.5 17.3-13.2 43-7.8 37 22.4l-.3 1.1v-.6c-.7-19.3-34-15.3-34-7.4 0 6.5 15.2 15.3 46 28v2c-20-6-37.3-8-56-8-18.7 0-36 2-56 8Zm0 356v2c30.7 12.6 46 21.5 46 28 0 8-33.3 12-34-7.4v-.6l-.2 1c-6.1 30.3 19.6 35.7 36.9 22.5-8.2 11.7-11.5 31 7.5 40.5 18.7-9.4 15.3-28.8 7.1-40.5 17.3 13.2 43 7.8 37-22.4l-.3-1.1v.6c-.7 19.3-34 15.3-34 7.4 0-6.5 15.2-15.3 46-28v-2c-20 6-37.3 8-56 8-18.7 0-36-2-56-8Zm234-234h2c12.6 30.7 21.5 46 28 46 8 0 12-33.3-7.4-34h-.6l1-.2c30.3-6.1 35.7 19.6 22.5 36.9 11.7-8.2 31-11.5 40.5 7.5-9.4 18.7-28.8 15.3-40.5 7.1 13.2 17.3 7.8 43-22.4 37l-1.1-.3h.6c19.3-.7 15.3-34 7.4-34-6.5 0-15.3 15.2-28 46h-2c6-20 8-37.3 8-56 0-18.7-2-36-8-56Zm-356 0h-2c-12.6 30.7-21.5 46-28 46-8 0-12-33.3 7.4-34h.6l-1-.2c-30.3-6.1-35.7 19.6-22.5 36.9-11.7-8.2-31-11.5-40.5 7.5 9.4 18.7 28.8 15.3 40.5 7.1-13.2 17.3-7.8 43 22.4 37l1.1-.3h-.6c-19.3-.7-15.3-34-7.4-34 6.5 0 15.3 15.2 28 46h2c-6-20-8-37.3-8-56 0-18.7 2-36 8-56Z"/>
    <g transform="translate(192 192)">
      <circle cx="128" cy="128" r="36"/>
      <path d="M24 0a24 24 0 0 1 17 41A24 24 0 0 1 0 24 24 24 0 0 1 24 0Zm48 48a24 24 0 0 1 17 41 24 24 0 0 1-41-17 24 24 0 0 1 24-24ZM249 7a24 24 0 0 1-17 41 24 24 0 0 1-17-41 24 24 0 0 1 34 0Zm-65 41a24 24 0 0 1 17 41 24 24 0 0 1-41-17 24 24 0 0 1 24-24ZM24 208a24 24 0 0 1 17 41 24 24 0 0 1-41-17 24 24 0 0 1 24-24Zm48-48a24 24 0 0 1 17 41 24 24 0 0 1-41-17 24 24 0 0 1 24-24Zm160 48a24 24 0 0 1 17 41 24 24 0 0 1-41-17 24 24 0 0 1 24-24Zm-48-48a24 24 0 0 1 17 41 24 24 0 0 1-41-17 24 24 0 0 1 24-24Z"/>
    </g>
  </g>
</svg>