<svg xmlns="http://www.w3.org/2000/svg" width="640" height="640">
  <g fill="#0B0C0C" fill-rule="evenodd">
    <path d="m406 155 2-2c31 11 51 14 59 8-10-9-23-19-42-19l17-34c8 21 17 37 29 49 3-9-2-28-7-38l57 57c-10-5-29-10-38-7 12 12 28 21 49 29l-34 17c0-19-10-32-19-42-6 8-3 28 8 59l-2 2a181 181 0 0 0-79-79ZM155 406l-2 2c11 31 14 51 8 59-9-10-19-23-19-42l-34 17c21 8 37 17 49 29-9 3-28-2-38-7l57 57c-5-10-10-29-7-38 12 12 21 28 29 49l17-34c-19 0-32-10-42-19 8-6 28-3 59 8l2-2a181 181 0 0 1-79-79Zm330 1 1 1c-11 31-13 51-8 60 10-11 19-24 19-43l34 17c-20 8-37 18-49 29 10 4 28-1 38-6l-56 57c4-10 9-29 6-38-11 12-21 28-29 49l-17-34c19 0 32-10 42-20-8-5-28-3-59 9l-1-2a197 197 0 0 0 79-79ZM233 155l-1-1c-31 11-51 13-60 8 11-10 24-19 43-19l-17-34c-8 20-18 37-29 49-4-10 1-28 6-38l-57 56c10-4 29-9 38-6-12 11-28 21-49 29l34 17c0-19 10-32 20-42 5 8 3 28-9 59l2 1a197 197 0 0 1 79-79Zm31-13v-2c31-13 46-22 46-28 0-8-33-12-34 7v1-1c-6-30 19-36 37-23-8-11-12-31 7-40 19 9 15 29 7 40 18-13 43-7 37 23v1-1c-1-19-34-15-34-7 0 6 15 15 46 28v2c-20-6-37-8-56-8s-36 2-56 8Zm0 356v2c31 13 46 22 46 28 0 8-33 12-34-7v-1 1c-6 30 19 36 37 23-8 11-12 31 7 40 19-9 15-29 7-40 18 13 43 7 37-23v-1 1c-1 19-34 15-34 7 0-6 15-15 46-28v-2c-20 6-37 8-56 8s-36-2-56-8Zm234-234h2c13 31 22 46 28 46 8 0 12-33-7-34h-1 1c30-6 36 19 23 37 11-8 31-12 40 7-9 19-29 15-40 7 13 18 7 43-23 37h-1 1c19-1 15-34 7-34-6 0-15 15-28 46h-2c6-20 8-37 8-56s-2-36-8-56Zm-356 0h-2c-13 31-22 46-28 46-8 0-12-33 7-34h1-1c-30-6-36 19-23 37-11-8-31-12-40 7 9 19 29 15 40 7-13 18-7 43 23 37h1-1c-19-1-15-34-7-34 6 0 15 15 28 46h2c-6-20-8-37-8-56s2-36 8-56Z"/>
    <g transform="translate(194 194)">
      <circle cx="126" cy="126" r="36"/>
      <path d="M26 0a26 26 0 0 1 18 44A26 26 0 0 1 0 26 26 26 0 0 1 26 0Zm44 44a26 26 0 0 1 18 44 26 26 0 0 1-44-18 26 26 0 0 1 26-26ZM230 0a26 26 0 0 1 18 44 26 26 0 0 1-44-18 26 26 0 0 1 26-26Zm-48 44a26 26 0 0 1 18 44 26 26 0 0 1-44-18 26 26 0 0 1 26-26ZM26 204a26 26 0 0 1 18 44 26 26 0 0 1-44-18 26 26 0 0 1 26-26Zm44-48a26 26 0 0 1 18 44 26 26 0 0 1-44-18 26 26 0 0 1 26-26Zm160 48a26 26 0 0 1 18 44 26 26 0 0 1-44-18 26 26 0 0 1 26-26Zm-48-48a26 26 0 0 1 18 44 26 26 0 0 1-44-18 26 26 0 0 1 26-26Z"/>
    </g>
  </g>
</svg>
